:version 1.10
:name ASF
:units
  mass 1
  length 1
  angle deg
:documentation
  ASF file generated by Kaydara
:root
  axis xyz
  order  tx ty tz rx ry rz
  position 0 0 0
  orientation 0 0 0
:bonedata
  begin
    id 1
    name RightUpLegDummy
    direction -0.718183 -0.695806 0.00816078
    length 4.904
    axis 0 0 0 xyz
  end
  begin
    id 2
    name RightUpLeg
    direction 3.53373e-006 -0.995788 0.0916898
    length 17.4976
    axis -3.49089 -0.000906625 0.000286804 xyz
    dof rx ry rz
  end
  begin
    id 3
    name RightLeg
    direction 0.00371092 -0.995096 -0.0988419
    length 16.5821
    axis 3.68512 0.0193738 -0.131023 xyz
    dof rx ry rz
  end
  begin
    id 4
    name RightFoot
    direction 0.00079151 -0.46099 0.887405
    length 3.77069
    axis 4.81691e-005 -0.120479 -0.188788 xyz
    dof rx ry rz
  end
  begin
    id 5
    name RightToes
    direction 0 0 0
    length 0
    axis 0 0 0 xyz
    dof rx ry rz
  end
  begin
    id 6
    name SpineDummy
    direction 8.3039e-015 1 4.57515e-016
    length 4.6813
    axis 0 0 0 xyz
  end
  begin
    id 7
    name Spine
    direction -3.15643e-008 0.999988 0.00495137
    length 10.1015
    axis -0.001389 0.000121418 2.40972e-006 xyz
    dof rx ry rz
  end
  begin
    id 8
    name Spine1
    direction 0 0 0
    length 0
    axis -0.001389 0.000121451 1.30017e-006 xyz
    dof rx ry rz
  end
  begin
    id 9
    name HEadDummy
    direction -1.99912e-008 0.999999 0.00127422
    length 3.43865
    axis -0.001389 0.000121451 1.30017e-006 xyz
  end
  begin
    id 10
    name HEad
    direction 0 0 0
    length 0
    axis 0 0 0 xyz
    dof rx ry rz
  end
  begin
    id 11
    name LeftShoulder1Dummy
    direction 0.998891 -0.0402509 -0.0244456
    length 3.5433
    axis -0.001389 0.000121451 1.30017e-006 xyz
  end
  begin
    id 12
    name LeftShoulder1
    direction 0.99951 -0.000327763 0.0313091
    length 4.05031
    axis -0.001389 0.000121451 1.30017e-006 xyz
    dof rx ry rz
  end
  begin
    id 13
    name LeftArm
    direction 0.998561 -0.00100056 -0.0536182
    length 10.3537
    axis -23.1894 0.134784 0.967509 xyz
    dof rx ry rz
  end
  begin
    id 14
    name LeftForeArm
    direction 0.998903 0.00866432 0.046012
    length 8.70632
    axis -9.91835 -0.06569 -0.177794 xyz
    dof rx ry rz
  end
  begin
    id 15
    name LeftHand
    direction 0 0 0
    length 0
    axis 0 0 0 xyz
    dof rx ry rz
  end
  begin
    id 16
    name RightShoulderDummy
    direction -0.998891 -0.0402509 -0.0244414
    length 3.5433
    axis -0.001389 0.000121451 1.30017e-006 xyz
  end
  begin
    id 17
    name RightShoulder
    direction -0.99951 -0.000327807 0.0313133
    length 4.05031
    axis 0.215806 0.000203643 -0.0068026 xyz
    dof rx ry rz
  end
  begin
    id 18
    name RightArm
    direction -0.998573 -0.000999564 -0.053403
    length 10.3947
    axis -23.2009 -0.134239 -0.964101 xyz
    dof rx ry rz
  end
  begin
    id 19
    name RightForeArm
    direction -0.998898 0.00868028 0.0461306
    length 8.68355
    axis -9.92322 0.0658061 0.178868 xyz
    dof rx ry rz
  end
  begin
    id 20
    name RightHand
    direction 0 0 0
    length 0
    axis 0 0 0 xyz
    dof rx ry rz
  end
  begin
    id 21
    name LeftUpLegDummy
    direction 0.718183 -0.695806 0.00816078
    length 4.904
    axis 0 0 0 xyz
  end
  begin
    id 22
    name LeftUpLeg
    direction -6.81752e-006 -0.995793 0.0916337
    length 17.4976
    axis -3.48766 0.00143442 -0.000524262 xyz
    dof rx ry rz
  end
  begin
    id 23
    name LeftLeg
    direction -0.00601358 -0.995091 -0.0987824
    length 16.5821
    axis 3.68178 -0.00654042 -0.000285133 xyz
    dof rx ry rz
  end
  begin
    id 24
    name LeftFoot
    direction -0.00417578 -0.460984 0.887399
    length 3.77069
    axis 1.87233e-006 4.66016e-005 -8.6538e-006 xyz
    dof rx ry rz
  end
  begin
    id 25
    name LeftToes
    direction 0 0 0
    length 0
    axis 0 0 0 xyz
    dof rx ry rz
  end
:hierarchy
  begin
    root RightUpLegDummy SpineDummy LeftUpLegDummy
    RightUpLegDummy RightUpLeg
    RightUpLeg RightLeg
    RightLeg RightFoot
    RightFoot RightToes
    SpineDummy Spine
    Spine Spine1
    Spine1 HEadDummy LeftShoulder1Dummy RightShoulderDummy
    HEadDummy HEad
    LeftShoulder1Dummy LeftShoulder1
    LeftShoulder1 LeftArm
    LeftArm LeftForeArm
    LeftForeArm LeftHand
    RightShoulderDummy RightShoulder
    RightShoulder RightArm
    RightArm RightForeArm
    RightForeArm RightHand
    LeftUpLegDummy LeftUpLeg
    LeftUpLeg LeftLeg
    LeftLeg LeftFoot
    LeftFoot LeftToes
  end

:SAMPLES-PER-SECOND 30
:FULLY-SPECIFIED
:DEGREES
506
root  10.6012 38.1677 15.8019 176.774 45.399 176.975
RightUpLeg  -13.2333 -39.8213 -9.86782
RightLeg  42.764 -17.2439 -16.6349
RightFoot  -14.5015 0.106296 7.41137
RightToes  0.000481921 0.542163 -0.142578
Spine  28.7721 0.0479198 1.4686
Spine1  1.34798 -1.01539 5.39606
HEad  1.06316 -9.10596 -1.2895
LeftShoulder1  3.89644 -10.9457 -20.5272
LeftArm  5.58201 -34.6419 -69.5825
LeftForeArm  -175.071 -64.398 -161.016
LeftHand  -0.25398 0.0180481 5.50724
RightShoulder  2.50761 6.96803 17.2991
RightArm  -45.6643 13.6829 27.8432
RightForeArm  -172.202 58.2876 165.99
RightHand  -0.624926 -8.25464 23.3212
LeftUpLeg  -26.5573 -10.2043 4.71275
LeftLeg  25.3898 -8.83993 -4.21843
LeftFoot  1.92552 0.72874 -6.36002
LeftToes  1.06245e-005 4.65869e-005 -8.65517e-006
507
root  10.3208 37.7776 15.8895 174.635 46.8816 174.792
RightUpLeg  -15.581 -36.156 -11.2764
RightLeg  46.6528 -16.0426 -17.7008
RightFoot  -15.1238 0.157925 7.8816
RightToes  0.000481921 0.542163 -0.142578
Spine  30.862 -0.00249931 5.52847
Spine1  0.158563 1.62905 -2.57606
HEad  0.527732 -12.3593 0.860102
LeftShoulder1  3.65988 -10.6582 -19.3227
LeftArm  6.85704 -36.8315 -69.9671
LeftForeArm  -177.023 -64.5724 -160.676
LeftHand  -0.25398 0.0180481 5.50724
RightShoulder  1.53637 4.75259 11.3444
RightArm  -52.7083 17.903 22.3541
RightForeArm  154.061 73.8335 135.054
RightHand  -0.200567 -5.22678 14.9078
LeftUpLeg  -27.7553 -11.8502 3.58025
LeftLeg  28.1188 -5.82287 -3.02253
LeftFoot  0.877681 0.644613 -6.07208
LeftToes  1.06245e-005 4.65869e-005 -8.65517e-006
508
root  9.95338 37.2614 15.9455 170.524 51.2209 170.605
RightUpLeg  -18.7544 -30.5489 -13.2449
RightLeg  50.6825 -14.1905 -18.1294
RightFoot  -16.5491 0.245067 7.86338
RightToes  0.000481921 0.542163 -0.142578
Spine  33.3814 0.397913 9.69677
Spine1  -0.720836 5.41505 -13.2816
HEad  0.193936 -15.579 2.68949
LeftShoulder1  3.23304 -10.3663 -16.5846
LeftArm  7.52494 -38.502 -71.62
LeftForeArm  -178.2 -64.7177 -160.437
LeftHand  -0.25398 0.0180481 5.50724
RightShoulder  0.625596 2.27315 2.71547
RightArm  -58.8914 25.2376 14.8415
RightForeArm  35.0146 65.2863 21.1751
RightHand  -0.229426 2.33266 -3.80651
LeftUpLeg  -28.5646 -10.097 1.58358
LeftLeg  31.6244 -3.3145 -1.86366
LeftFoot  -0.873548 0.59205 -6.41395
LeftToes  1.06245e-005 4.65869e-005 -8.65517e-006
509
root  9.79481 36.8174 15.9981 167.155 54.6838 166.758
RightUpLeg  -21.5144 -27.2333 -14.4337
RightLeg  53.448 -12.6224 -17.9488
RightFoot  -18.3837 0.344795 7.61894
RightToes  0.000481921 0.542163 -0.142578
Spine  34.733 0.930864 12.3672
Spine1  -1.03611 8.32627 -20.7997
HEad  0.0437525 -17.5783 3.04118
LeftShoulder1  2.88477 -10.0951 -14.3098
LeftArm  7.93263 -38.3217 -73.5155
LeftForeArm  -176.648 -64.6729 -160.628
LeftHand  -0.25398 0.0180481 5.50724
RightShoulder  0.168355 0.4357 -4.46615
RightArm  -58.0063 27.6946 10.0138
RightForeArm  12.8729 39.757 6.85241
RightHand  -1.51693 7.78471 -14.3866
LeftUpLeg  -29.6239 -6.94625 0.151029
LeftLeg  34.5484 -2.72855 -1.67626
LeftFoot  -2.4522 0.564908 -7.06766
LeftToes  1.06245e-005 4.65869e-005 -8.65517e-006
510
root  9.97457 36.5955 16.0777 167.643 52.873 166.983
RightUpLeg  -21.4925 -29.5779 -14.8304
RightLeg  54.6641 -12.003 -17.9066
RightFoot  -19.8407 0.440814 7.72979
RightToes  0.000481921 0.542163 -0.142578
Spine  33.8354 0.778287 11.7043
Spine1  -0.204518 7.68808 -18.9872
HEad  -0.464724 -16.8116 1.87903
LeftShoulder1  2.90606 -10.1262 -14.4186
LeftArm  7.27693 -35.6551 -73.4666
LeftForeArm  -174.782 -63.7755 -161.535
LeftHand  -0.25398 0.0180481 5.50724
RightShoulder  0.138914 -0.468614 -4.1075
RightArm  -51.2219 23.8528 10.7643
RightForeArm  13.5753 49.743 13.789
RightHand  -1.5001 7.99281 -13.2467
LeftUpLeg  -30.7814 -7.10388 0.0247749
LeftLeg  35.9742 -3.92359 -2.69738
LeftFoot  -2.90586 0.56013 -7.3514
LeftToes  1.06245e-005 4.65869e-005 -8.65517e-006
